<?xml version="1.0" encoding="UTF-8" standalone="no"?>
<svg
   class="ionicon"
   viewBox="0 0 512 512"
   version="1.1"
   id="svg2"
   sodipodi:docname="close-circle-outline.svg"
   inkscape:version="1.3.1 (91b66b0, 2023-11-16)"
   xmlns:inkscape="http://www.inkscape.org/namespaces/inkscape"
   xmlns:sodipodi="http://sodipodi.sourceforge.net/DTD/sodipodi-0.dtd"
   xmlns="http://www.w3.org/2000/svg"
   xmlns:svg="http://www.w3.org/2000/svg">
  <defs
     id="defs2" />
  <sodipodi:namedview
     id="namedview2"
     pagecolor="#ffffff"
     bordercolor="#000000"
     borderopacity="0.25"
     inkscape:showpageshadow="2"
     inkscape:pageopacity="0.0"
     inkscape:pagecheckerboard="0"
     inkscape:deskcolor="#d1d1d1"
     inkscape:zoom="2.296875"
     inkscape:cx="255.78231"
     inkscape:cy="256"
     inkscape:window-width="2490"
     inkscape:window-height="1376"
     inkscape:window-x="0"
     inkscape:window-y="0"
     inkscape:window-maximized="1"
     inkscape:current-layer="svg2" />
  <path
     d="M448 256c0-106-86-192-192-192S64 150 64 256s86 192 192 192 192-86 192-192z"
     fill="none"
     stroke="currentColor"
     stroke-miterlimit="10"
     stroke-width="32"
     id="path1"
     style="fill:none" />
  <path
     fill="none"
     stroke="currentColor"
     stroke-linecap="round"
     stroke-linejoin="round"
     stroke-width="32"
     d="M320 320L192 192M192 320l128-128"
     id="path2" />
  <path
     style="fill:#ed5e5e;stroke-width:0.435374;fill-opacity:1"
     d="m 242.72109,463.412 c -0.95782,-0.0927 -3.99456,-0.3778 -6.7483,-0.63362 C 164.36177,456.12582 100.26059,411.32221 68.760019,345.90476 51.422914,309.90068 44.903611,269.81137 49.891732,229.87755 54.282409,194.72674 68.296153,160.06242 89.568255,131.73391 101.10572,116.36922 116.29679,101.1895 131.79705,89.536676 c 42.62244,-32.042823 96.79961,-46.330833 150.3254,-39.644944 86.91557,10.856598 158.66637,76.667538 176.9515,162.302658 3.42273,16.02972 4.38183,25.61796 4.38183,43.80561 0,18.18765 -0.9591,27.77589 -4.38183,43.80561 -11.30996,52.96819 -43.70331,100.04595 -89.47452,130.03473 -27.5939,18.07921 -57.28126,28.72687 -91.39535,32.77984 -5.54332,0.65858 -30.99077,1.22645 -35.48299,0.79182 z m 31.67802,-32.17068 c 47.57925,-5.01202 91.22982,-29.21572 120.53138,-66.83316 15.46589,-19.85515 26.50851,-42.73574 32.36329,-67.05756 3.38262,-14.05202 4.74416,-25.91938 4.74416,-41.3506 0,-11.9198 -0.43607,-17.68552 -2.13959,-28.28938 C 421.7236,176.82542 390.77732,131.139 346.71394,104.9043 306.63524,81.042023 259.89381,73.896719 214.63946,84.714238 164.13239,96.787357 121.35861,130.95947 98.059516,177.85034 c -9.444529,19.0077 -15.31337,39.65484 -17.572901,61.82313 -0.686295,6.73325 -0.686295,25.91981 0,32.65306 2.327607,22.83619 8.356179,43.61185 18.381682,63.34694 17.242893,33.94245 44.281033,60.83876 78.342223,77.93128 20.96767,10.52197 43.9366,16.71872 67.79603,18.29058 7.12952,0.4697 21.83043,0.14259 29.39256,-0.65401 z"
     id="path3" />
  <path
     style="fill:#ed5e5e;fill-opacity:1;stroke-width:0.435374"
     d="m 187.25254,335.04276 c -4.78842,-1.55631 -9.36019,-6.41219 -10.49648,-11.14874 -0.30283,-1.26235 -0.44597,-3.55796 -0.32622,-5.23169 0.42513,-5.94177 -0.29725,-5.08727 29.87828,-35.3426 L 233.55578,256 206.30812,228.68027 C 175.04805,197.33753 176.54422,199.18137 176.54422,192 c 0,-3.65506 0.14269,-4.42665 1.22705,-6.63485 1.56334,-3.18365 4.41023,-6.03054 7.59388,-7.59388 2.2082,-1.08436 2.97979,-1.22705 6.63485,-1.22705 7.18137,0 5.33753,-1.49617 36.68027,29.7639 L 256,233.55578 283.31973,206.30812 c 31.34274,-31.26007 29.4989,-29.7639 36.68027,-29.7639 3.65506,0 4.42664,0.14269 6.63485,1.22705 3.18365,1.56334 6.03054,4.41023 7.59388,7.59388 1.08435,2.2082 1.22705,2.97979 1.22705,6.63485 0,7.18137 1.49617,5.33753 -29.7639,36.68027 L 278.44422,256 l 27.24766,27.31973 c 31.26007,31.34274 29.7639,29.4989 29.7639,36.68027 0,3.65506 -0.1427,4.42664 -1.22705,6.63485 -1.56334,3.18365 -4.41023,6.03054 -7.59388,7.59388 -2.20821,1.08435 -2.97979,1.22705 -6.63485,1.22705 -7.18137,0 -5.33753,1.49617 -36.68027,-29.7639 L 256,278.44422 228.68027,305.69188 c -30.80247,30.72122 -29.44564,29.59589 -35.98008,29.84145 -2.22792,0.0837 -4.23747,-0.0972 -5.44765,-0.49057 z"
     id="path4" />
</svg>
