<?xml version="1.0" encoding="UTF-8" standalone="no"?>
<svg
   class="ionicon"
   viewBox="0 0 512 512"
   version="1.1"
   id="svg2"
   sodipodi:docname="invalid-circle-resized.svg"
   inkscape:version="1.3.1 (91b66b0, 2023-11-16)"
   xmlns:inkscape="http://www.inkscape.org/namespaces/inkscape"
   xmlns:sodipodi="http://sodipodi.sourceforge.net/DTD/sodipodi-0.dtd"
   xmlns="http://www.w3.org/2000/svg"
   xmlns:svg="http://www.w3.org/2000/svg">
  <defs
     id="defs2" />
  <sodipodi:namedview
     id="namedview2"
     pagecolor="#ffffff"
     bordercolor="#000000"
     borderopacity="0.25"
     inkscape:showpageshadow="2"
     inkscape:pageopacity="0.0"
     inkscape:pagecheckerboard="0"
     inkscape:deskcolor="#d1d1d1"
     inkscape:zoom="11.313708"
     inkscape:cx="59.971494"
     inkscape:cy="449.14539"
     inkscape:window-width="1504"
     inkscape:window-height="1289"
     inkscape:window-x="26"
     inkscape:window-y="23"
     inkscape:window-maximized="0"
     inkscape:current-layer="svg2" />
  <path
     style="fill:#ed5e5e;fill-opacity:1;stroke-width:0.0380145"
     d="m 65.241964,463.55108 c -0.08362,-0.007 -0.348782,-0.0331 -0.589222,-0.0554 -6.252667,-0.58087 -11.849617,-4.49287 -14.600067,-10.20476 -1.513777,-3.14366 -2.083005,-6.64403 -1.647472,-10.13082 0.38337,-3.06917 1.606969,-6.09587 3.464329,-8.56936 1.007387,-1.34156 2.333782,-2.66695 3.687179,-3.68442 3.721548,-2.7978 8.451988,-4.04533 13.125556,-3.46156 7.58897,0.94794 13.853841,6.69416 15.450394,14.17133 0.298855,1.39964 0.382596,2.23683 0.382596,3.82485 0,1.58805 -0.08374,2.42524 -0.382596,3.82488 -0.98752,4.62488 -3.815923,8.73542 -7.812404,11.35388 -2.409342,1.57858 -5.001474,2.50828 -7.980121,2.86214 -0.484012,0.0575 -2.705937,0.10716 -3.098172,0.0691 z m 2.765943,-2.80894 c 4.154349,-0.43763 7.965669,-2.55095 10.524114,-5.8355 1.350392,-1.73364 2.314572,-3.73143 2.825778,-5.85508 0.295351,-1.22694 0.414233,-2.26313 0.414233,-3.61051 0,-1.04077 -0.03807,-1.54418 -0.186822,-2.47007 -0.713774,-4.443 -3.415825,-8.43206 -7.263188,-10.72274 -3.499443,-2.08352 -7.58064,-2.70739 -11.531991,-1.76288 -4.40999,1.05417 -8.144752,4.03788 -10.179096,8.13212 -0.824642,1.65965 -1.337075,3.46242 -1.534364,5.39803 -0.05993,0.58792 -0.05993,2.26318 0,2.85109 0.203244,1.99392 0.729613,3.80793 1.604982,5.53109 1.505551,2.96367 3.866367,5.31209 6.840397,6.80451 1.830776,0.91872 3.836292,1.45979 5.919563,1.59704 0.622508,0.041 1.906107,0.012 2.56639,-0.0571 z"
     id="path3" />
  <path
     style="fill:#ed5e5e;fill-opacity:1;stroke-width:0.0380145"
     d="m 60.398766,452.34263 c -0.418097,-0.13593 -0.817277,-0.5599 -0.916492,-0.97345 -0.02644,-0.11028 -0.03893,-0.31067 -0.02848,-0.45681 0.03713,-0.5188 -0.02596,-0.44417 2.608801,-3.08591 l 2.379112,-2.38541 -2.379112,-2.38539 c -2.72945,-2.73667 -2.598814,-2.57567 -2.598814,-3.20271 0,-0.31915 0.01247,-0.38652 0.107136,-0.57933 0.136503,-0.27797 0.385074,-0.52655 0.663054,-0.66305 0.192815,-0.0947 0.260177,-0.10716 0.579316,-0.10716 0.627037,0 0.466043,-0.13065 3.202711,2.5988 l 2.385406,2.37911 2.385402,-2.37911 c 2.736668,-2.72943 2.575675,-2.5988 3.202712,-2.5988 0.319139,0 0.386508,0.012 0.579316,0.10716 0.277979,0.13641 0.526554,0.38508 0.663054,0.66305 0.09467,0.19274 0.107135,0.26018 0.107135,0.57933 0,0.62704 0.130629,0.46604 -2.598813,3.20271 l -2.379112,2.38539 2.379112,2.38541 c 2.72945,2.73667 2.598813,2.57567 2.598813,3.20271 0,0.31915 -0.01247,0.38651 -0.107135,0.57933 -0.136503,0.27797 -0.385075,0.52654 -0.663054,0.66305 -0.192815,0.0947 -0.260177,0.10715 -0.579316,0.10715 -0.627037,0 -0.466044,0.13066 -3.202712,-2.59879 l -2.385402,-2.37911 -2.385406,2.37911 c -2.689496,2.68239 -2.571023,2.58412 -3.141575,2.60558 -0.194517,0.007 -0.36999,-0.01 -0.475657,-0.0429 z"
     id="path4" />
</svg>
