<?xml version="1.0" encoding="UTF-8" standalone="no"?>
<svg
   viewBox="0 0 30 37.5"
   version="1.1"
   x="0px"
   y="0px"
   id="svg4"
   sodipodi:docname="map-icon.svg"
   inkscape:version="1.3.1 (91b66b0, 2023-11-16)"
   xmlns:inkscape="http://www.inkscape.org/namespaces/inkscape"
   xmlns:sodipodi="http://sodipodi.sourceforge.net/DTD/sodipodi-0.dtd"
   xmlns="http://www.w3.org/2000/svg"
   xmlns:svg="http://www.w3.org/2000/svg"
   xmlns:rdf="http://www.w3.org/1999/02/22-rdf-syntax-ns#"
   xmlns:cc="http://creativecommons.org/ns#"
   xmlns:dc="http://purl.org/dc/elements/1.1/">
  <defs
     id="defs4" />
  <sodipodi:namedview
     id="namedview4"
     pagecolor="#ffffff"
     bordercolor="#000000"
     borderopacity="0.25"
     inkscape:showpageshadow="2"
     inkscape:pageopacity="0.0"
     inkscape:pagecheckerboard="0"
     inkscape:deskcolor="#d1d1d1"
     inkscape:zoom="22.174869"
     inkscape:cx="25.546938"
     inkscape:cy="15.152288"
     inkscape:window-width="2490"
     inkscape:window-height="1376"
     inkscape:window-x="0"
     inkscape:window-y="0"
     inkscape:window-maximized="1"
     inkscape:current-layer="g3" />
  <title
     id="title1">Adventure</title>
  <desc
     id="desc1">Created with Sketch.</desc>
  <g
     stroke="none"
     stroke-width="1"
     fill="none"
     fill-rule="evenodd"
     id="g3">
    <path
       d="M9.50004069,27.0000407 C5.91018982,27.0000407 3.00004069,24.0898916 3.00004069,20.5000407 C3.00004069,16.9101898 5.91018982,14.0000407 9.50004069,14.0000407 C13.0898916,14.0000407 16.0000407,16.9101898 16.0000407,20.5000407 C16.0000407,24.0898916 13.0898916,27.0000407 9.50004069,27.0000407 Z M9.5,25 C11.9852814,25 14,22.9852814 14,20.5 C14,18.0147186 11.9852814,16 9.5,16 C7.01471863,16 5,18.0147186 5,20.5 C5,22.9852814 7.01471863,25 9.5,25 Z M8.5,19.5 L12,18 L10.5,21.5 L7,23 L8.5,19.5 Z"
       fill="#000000"
       id="path1"
       style="fill:#00d300;fill-opacity:1" />
    <g
       transform="translate(3.000000, 3.000000)"
       fill="#000000"
       id="g2">
      <path
         d="M7,9.0145304 C6.83457353,9.00493537 6.6678777,9.00007121 6.50004578,9.00007121 C3.89251009,9.00007121 1.55920907,10.1742094 -3.33066907e-16,12.0226284 L0,8.34991577 L0.979480635,9.64973048 L3.23836297,7.94754054 L2.03473293,6.35026952 L4.16333634e-16,7.88355076 L0,5.47570801 L0.5,4.5 L0,4.04327393 L0,2.4 L3.75310858,1.29875657 L4.4887085,2.0355835 L5.22757063,0.708971747 L7,1.77635684e-15 L7,9.0145304 Z M15,17.5133285 C15.0000068,17.5088983 15.0000102,17.5044674 15.0000102,17.5000356 C15.0000102,17.4956038 15.0000068,17.4911729 15,17.4867427 L15,2.4 L18.0110988,1.59704033 L19,2.5 L20.0521701,1.05275464 L24,0 L24,2 L23,3 L24,4 L24,9.5 L24,19.6 L18.9523809,20.9460318 L17.4158297,20.3557787 L16.4656643,21.6091562 L15,22 L15,17.5133285 Z M14,13.496474 C12.7942127,11.2423645 10.6019341,9.59526015 8,9.13199678 L8,0 L11.0230853,0.971080924 L11.5,2 L12.6042371,1.73003381 L14,2.4 L14,7.54427374 L12.5887385,6.31748284 L11.2766204,7.826902 L13.4112615,9.68251716 L14,9.00525098 L14,13.496474 Z M4.14206622,7.2995078 L6.37089721,5.55815418 L5.13957426,3.98213267 L2.91074327,5.72348629 L4.14206622,7.2995078 Z M19.7234037,12.6376173 L21.9748737,14.8890873 L23.3890873,13.4748737 L21.1376173,11.2234037 L23.5731467,8.78787429 L22.0444091,7.25913665 L19.6088796,9.69466608 L17.0251263,7.1109127 L15.6109127,8.52512627 L18.1946661,11.1088796 L15.9294585,13.3740872 L17.4581962,14.9028249 L19.7234037,12.6376173 Z M8.28371132,4.76686237 L10.352292,6.69584503 L11.7162887,5.23313763 L9.64770804,3.30415497 L8.28371132,4.76686237 Z"
         id="path2"
         style="fill:#00ff00" />
    </g>
    <path
       style="fill:#00d300;fill-opacity:1;stroke-width:0.0450961"
       d="M 8.500614,26.900847 C 5.8369206,26.460732 3.7496616,24.477496 3.156558,21.823123 3.039677,21.300034 3.0145374,20.051114 3.1092704,19.4739 3.640121,16.239393 6.5082739,13.896498 9.7633047,14.03845 c 3.0531383,0.133147 5.5642843,2.334822 6.1195003,5.365338 0.114192,0.623292 0.101016,1.718125 -0.02807,2.33253 -0.261657,1.245385 -0.806968,2.304874 -1.638358,3.18318 -0.92634,0.978614 -2.070485,1.626149 -3.392971,1.920269 -0.536716,0.119365 -1.7732409,0.151881 -2.322791,0.06108 z m 2.121548,-2.025089 c 1.303149,-0.333852 2.337655,-1.178847 2.93257,-2.395354 0.352041,-0.719868 0.418484,-1.028695 0.422045,-1.96168 0.0026,-0.691232 -0.01,-0.836758 -0.101631,-1.172499 -0.340711,-1.248056 -1.16525,-2.274511 -2.288751,-2.849233 -0.744562,-0.380876 -1.280085,-0.506308 -2.1387629,-0.500948 -0.5020986,0.0031 -0.6876479,0.02437 -1.0586994,0.121169 -1.4107757,0.368039 -2.5612906,1.379102 -3.0933053,2.718371 -0.4450279,1.120293 -0.4012086,2.513708 0.1128076,3.587183 0.6530968,1.363933 1.8975947,2.299459 3.3834818,2.543465 0.5157338,0.08469 1.2973192,0.04606 1.8302452,-0.09047 z"
       id="path4" />
    <path
       style="fill:#00d300;fill-opacity:1;stroke-width:0.0450961"
       d="m 18.01589,15.192234 c 0,-5.3793863 0.0079,-9.7807025 0.0175,-9.7807025 0.0096,0 0.664083,-0.1724704 1.454349,-0.3832675 0.790266,-0.2107972 1.45868,-0.3832897 1.485365,-0.3833169 0.02668,-2.71e-5 0.260057,0.1925332 0.518605,0.4279118 0.258548,0.2353785 0.490381,0.4214996 0.515184,0.4136025 0.0248,-0.0079 0.273258,-0.3273123 0.552122,-0.7098116 l 0.507027,-0.6954531 1.950711,-0.5237915 1.95071,-0.5237915 0.01218,0.9731379 0.01218,0.9731378 -0.507502,0.5089457 -0.507502,0.5089456 0.506596,0.5080367 0.506595,0.5080367 v 7.7822049 7.782205 l -2.505525,0.668073 c -2.179004,0.58101 -2.524275,0.662041 -2.649396,0.621779 -0.07913,-0.02546 -0.432593,-0.158353 -0.785476,-0.295313 l -0.641606,-0.249019 -0.485796,0.635684 c -0.469753,0.614689 -0.493244,0.637592 -0.711277,0.693446 -0.124014,0.03177 -0.443633,0.116771 -0.710264,0.188893 l -0.484783,0.13113 z m 3.607695,1.606055 1.10417,-1.104861 1.116549,1.115879 1.11655,1.115879 0.732473,-0.732473 0.732473,-0.732473 -1.115866,-1.116536 -1.115866,-1.116537 1.19504,-1.194402 c 0.657272,-0.656921 1.19504,-1.215063 1.19504,-1.240315 0,-0.02525 -0.345026,-0.390491 -0.766726,-0.811643 l -0.766725,-0.76573 -1.217511,1.216884 -1.217511,1.216884 -1.274248,-1.27366 c -0.700836,-0.700513 -1.294172,-1.27366 -1.318523,-1.27366 -0.05856,0 -1.420765,1.361177 -1.420765,1.41969 0,0.02494 0.573142,0.618756 1.273648,1.319586 l 1.273647,1.274235 -1.126667,1.127344 -1.126667,1.127344 0.765718,0.766713 c 0.421145,0.421692 0.786391,0.766713 0.811657,0.766713 0.02527,0 0.542816,-0.497188 1.15011,-1.104861 z"
       id="path5" />
    <path
       style="fill:#00d300;fill-opacity:1;stroke-width:0.0450961"
       d="M 16.783984,16.073793 C 16.343525,15.320635 15.366732,14.237511 14.640242,13.69669 13.672697,12.97642 12.505787,12.434474 11.398038,12.19092 l -0.372043,-0.0818 V 7.5718464 3.0345717 l 1.486431,0.4760562 1.486431,0.4760563 0.237089,0.5094912 c 0.152047,0.326739 0.261858,0.509167 0.306139,0.5085873 0.03798,-4.971e-4 0.261836,-0.050823 0.497463,-0.1118363 0.235627,-0.061013 0.471313,-0.1113392 0.523746,-0.1118363 0.05243,-4.972e-4 0.392346,0.1425517 0.75536,0.3178865 L 16.97868,5.417767 v 2.5248207 c 0,2.4282303 -0.0031,2.5225663 -0.08163,2.4658933 -0.0449,-0.03241 -0.350225,-0.292299 -0.678502,-0.5775321 -0.328277,-0.2852328 -0.61116,-0.5221456 -0.628629,-0.5264726 -0.03506,-0.00869 -1.277394,1.4223137 -1.303948,1.5019757 -0.0091,0.02738 0.466028,0.469856 1.055899,0.983281 l 1.072493,0.9335 0.108596,-0.127082 c 0.05973,-0.06989 0.1867,-0.216184 0.282161,-0.325088 l 0.173564,-0.198008 v 2.148414 c 0,1.181627 -0.0051,2.148025 -0.01127,2.14755 -0.0062,-4.75e-4 -0.08874,-0.133327 -0.183422,-0.295226 z m -2.73619,-7.0837628 c 0.359443,-0.3880965 0.653533,-0.7280083 0.653533,-0.7553596 0,-0.050966 -2.046778,-1.9893275 -2.06963,-1.9600037 -0.007,0.00893 -0.322173,0.3485366 -0.700471,0.7546787 l -0.687816,0.7384402 0.44372,0.4136787 c 0.244046,0.2275237 0.707532,0.6606109 1.029969,0.962416 0.322437,0.3018057 0.606704,0.549422 0.631705,0.5502585 0.025,8.37e-4 0.339546,-0.3160122 0.69899,-0.7041088 z"
       id="path6" />
    <path
       style="fill:#00d300;fill-opacity:1;stroke-width:0.0450961"
       d="m 3.0439865,13.207977 c 0,-0.93966 0.00766,-1.708473 0.017031,-1.708473 0.00937,0 0.1970799,0.238098 0.4171389,0.529106 0.2200591,0.291008 0.4221169,0.55754 0.4490175,0.592293 0.039634,0.0512 0.2620079,-0.09668 1.1724985,-0.779736 C 5.717646,11.37756 6.2296522,10.980241 6.237464,10.958236 6.249614,10.924016 5.2622005,9.5667728 5.0921375,9.3839379 c -0.050241,-0.054015 -0.2068687,0.04707 -1.0306489,0.6651671 -0.5342722,0.400874 -0.9817762,0.728862 -0.9944533,0.728862 -0.012677,0 -0.023049,-0.528335 -0.023049,-1.1740765 V 8.4298141 L 3.2937016,7.962191 3.5434167,7.494568 3.2942706,7.2760535 3.0451246,7.057539 3.0445555,6.2372642 3.0439865,5.4169894 3.4160293,5.3047259 C 3.6206528,5.242981 4.4559997,4.9969155 5.2723558,4.7579136 L 6.7566396,4.3233649 7.1275637,4.6923622 7.4984877,5.0613595 7.6114967,4.8644027 C 7.6736518,4.7560765 7.8433236,4.4555412 7.9885456,4.1965467 L 8.2525855,3.7256475 9.1206854,3.3774379 9.9887852,3.0292282 v 4.4831667 4.4831661 l -0.5975233,8.27e-4 c -2.2312374,0.0031 -4.4276327,0.94043 -5.9977807,2.559646 L 3.0439865,14.91645 Z M 8.255276,9.4653395 C 8.8618293,8.9914233 9.3664916,8.590096 9.3767473,8.5735015 9.3870031,8.556907 9.1412857,8.2191738 8.8307084,7.8229825 8.5201312,7.4267915 8.2398102,7.0657161 8.207774,7.0205928 8.1542783,6.9452454 8.057098,7.0108284 7.0168573,7.8242921 6.2376541,8.4336256 5.8948768,8.7278745 5.9184369,8.7672041 c 0.050698,0.084631 1.2044507,1.5588669 1.2203803,1.5593709 0.0075,2.37e-4 0.509905,-0.3873188 1.1164588,-0.8612355 z"
       id="path7" />
  </g>
  <text
     x="0"
     y="45"
     fill="#000000"
     font-size="5px"
     font-weight="bold"
     font-family="'Helvetica Neue', Helvetica, Arial-Unicode, Arial, Sans-serif"
     id="text3">Created by Guilherme Schmitt</text>
  <text
     x="0"
     y="50"
     fill="#000000"
     font-size="5px"
     font-weight="bold"
     font-family="'Helvetica Neue', Helvetica, Arial-Unicode, Arial, Sans-serif"
     id="text4">from the Noun Project</text>
  <metadata
     id="metadata4">
    <rdf:RDF>
      <cc:Work
         rdf:about="">
        <dc:title>Adventure</dc:title>
      </cc:Work>
    </rdf:RDF>
  </metadata>
</svg>
